M48
; DRILL file {KiCad 7.99.0-unknown} date 2023-12-26T20:45:14-0500
; FORMAT={-:-/ absolute / inch / decimal}
; #@! TF.CreationDate,2023-12-26T20:45:14-05:00
; #@! TF.GenerationSoftware,Kicad,Pcbnew,7.99.0-unknown
; #@! TF.FileFunction,Plated,1,2,PTH
FMAT,2
INCH
; #@! TA.AperFunction,Plated,PTH,ViaDrill
T1C0.0200
; #@! TA.AperFunction,Plated,PTH,ComponentDrill
T2C0.0315
; #@! TA.AperFunction,Plated,PTH,ComponentDrill
T3C0.0394
; #@! TA.AperFunction,Plated,PTH,ComponentDrill
T4C0.0472
; #@! TA.AperFunction,Plated,PTH,ComponentDrill
T5C0.0551
%
G90
G05
T1
X2.0839Y-0.37
X2.145Y-0.37
X2.155Y-0.465
X2.155Y-0.525
X2.155Y-0.585
X2.155Y-0.645
X2.155Y-0.735
X2.205Y-0.37
X2.215Y-0.735
X2.26Y-0.44
X2.26Y-0.67
X2.265Y-0.37
X2.275Y-0.735
X2.325Y-0.37
X2.335Y-0.435
X2.335Y-0.495
X2.335Y-0.555
X2.335Y-0.615
X2.335Y-0.675
X2.335Y-0.735
T2
X1.615Y-0.655
X1.715Y-0.655
X1.815Y-0.655
T3
X0.437Y-0.2427
X0.437Y-1.0301
X1.2244Y-0.4396
X1.2244Y-0.8333
T4
X1.5835Y-1.025
X1.673Y-0.165
X1.673Y-0.3619
X1.7804Y-1.025
T5
X0.125Y-0.4
X0.125Y-0.875
X2.0Y-1.185
X2.2Y-0.925
M30
