%TF.GenerationSoftware,KiCad,Pcbnew,8.0.0~rc1*%
%TF.CreationDate,2024-01-16T05:38:03-05:00*%
%TF.ProjectId,VTVMbattElim,5654564d-6261-4747-9445-6c696d2e6b69,rev?*%
%TF.SameCoordinates,PX68860e8PY35c5de8*%
%TF.FileFunction,Soldermask,Bot*%
%TF.FilePolarity,Negative*%
%FSLAX46Y46*%
G04 Gerber Fmt 4.6, Leading zero omitted, Abs format (unit mm)*
G04 Created by KiCad (PCBNEW 8.0.0~rc1) date 2024-01-16 05:38:03*
%MOMM*%
%LPD*%
G01*
G04 APERTURE LIST*
G04 Aperture macros list*
%AMRoundRect*
0 Rectangle with rounded corners*
0 $1 Rounding radius*
0 $2 $3 $4 $5 $6 $7 $8 $9 X,Y pos of 4 corners*
0 Add a 4 corners polygon primitive as box body*
4,1,4,$2,$3,$4,$5,$6,$7,$8,$9,$2,$3,0*
0 Add four circle primitives for the rounded corners*
1,1,$1+$1,$2,$3*
1,1,$1+$1,$4,$5*
1,1,$1+$1,$6,$7*
1,1,$1+$1,$8,$9*
0 Add four rect primitives between the rounded corners*
20,1,$1+$1,$2,$3,$4,$5,0*
20,1,$1+$1,$4,$5,$6,$7,0*
20,1,$1+$1,$6,$7,$8,$9,0*
20,1,$1+$1,$8,$9,$2,$3,0*%
G04 Aperture macros list end*
%ADD10C,3.200000*%
%ADD11C,2.286000*%
%ADD12C,4.318000*%
%ADD13O,2.540000X3.810000*%
%ADD14RoundRect,0.250000X-0.625000X0.400000X-0.625000X-0.400000X0.625000X-0.400000X0.625000X0.400000X0*%
%ADD15RoundRect,0.304800X-0.914400X-1.570200X0.914400X-1.570200X0.914400X1.570200X-0.914400X1.570200X0*%
%ADD16RoundRect,0.250000X-0.400000X-0.625000X0.400000X-0.625000X0.400000X0.625000X-0.400000X0.625000X0*%
%ADD17RoundRect,0.250000X-0.650000X0.412500X-0.650000X-0.412500X0.650000X-0.412500X0.650000X0.412500X0*%
%ADD18RoundRect,0.250000X0.400000X0.625000X-0.400000X0.625000X-0.400000X-0.625000X0.400000X-0.625000X0*%
%ADD19RoundRect,0.284091X-0.340909X0.340909X-0.340909X-0.340909X0.340909X-0.340909X0.340909X0.340909X0*%
%ADD20RoundRect,0.250000X0.412500X0.650000X-0.412500X0.650000X-0.412500X-0.650000X0.412500X-0.650000X0*%
%ADD21R,2.000000X1.500000*%
%ADD22R,2.000000X3.800000*%
%ADD23RoundRect,0.284091X-0.340909X-0.340909X0.340909X-0.340909X0.340909X0.340909X-0.340909X0.340909X0*%
%TA.AperFunction,Profile*%
%ADD24C,0.100000*%
%TD*%
G04 APERTURE END LIST*
D10*
%TO.C,H4*%
X2921000Y-23396400D03*
%TD*%
D11*
%TO.C,RV1*%
X36703000Y-18669000D03*
X36703000Y-21209000D03*
X36703000Y-23749000D03*
%TD*%
D12*
%TO.C,TP2*%
X3048000Y-16891000D03*
%TD*%
%TO.C,TP1*%
X3048000Y-9271000D03*
%TD*%
D10*
%TO.C,H2*%
X47371000Y-2771600D03*
%TD*%
D13*
%TO.C,PS1*%
X11882120Y-20667980D03*
X11882120Y-5671820D03*
X26878280Y-15671800D03*
X26878280Y-10668000D03*
%TD*%
D12*
%TO.C,TP4*%
X41529000Y-23749000D03*
%TD*%
D10*
%TO.C,H1*%
X2921000Y-2771600D03*
%TD*%
D12*
%TO.C,TP3*%
X47371000Y-17145000D03*
%TD*%
D10*
%TO.C,H3*%
X47371000Y-23396400D03*
%TD*%
D14*
%TO.C,R5*%
X40920000Y-16865000D03*
X40920000Y-19965000D03*
%TD*%
D15*
%TO.C,F2*%
X7561000Y-16383000D03*
X16061000Y-16383000D03*
%TD*%
D16*
%TO.C,R2*%
X33121000Y-14732000D03*
X36221000Y-14732000D03*
%TD*%
D17*
%TO.C,C2*%
X43345500Y-16852500D03*
X43345500Y-19977500D03*
%TD*%
D18*
%TO.C,R1*%
X33072000Y-17526000D03*
X29972000Y-17526000D03*
%TD*%
D17*
%TO.C,C4*%
X29591000Y-7073500D03*
X29591000Y-10198500D03*
%TD*%
D19*
%TO.C,D2*%
X23495000Y-7975600D03*
X23495000Y-11328400D03*
%TD*%
D20*
%TO.C,C1*%
X33084500Y-19951500D03*
X29959500Y-19951500D03*
%TD*%
D21*
%TO.C,U1*%
X35458000Y-11825000D03*
X35458000Y-9525000D03*
D22*
X41758000Y-9525000D03*
D21*
X35458000Y-7225000D03*
%TD*%
D23*
%TO.C,D1*%
X31813100Y-4229500D03*
X35165900Y-4229500D03*
%TD*%
D14*
%TO.C,R3*%
X32258000Y-9372000D03*
X32258000Y-12472000D03*
%TD*%
D24*
X50038000Y-26162000D02*
X0Y-26162000D01*
X0Y0D02*
X50038000Y0D01*
X0Y-26162000D02*
X0Y0D01*
X50038000Y0D02*
X50038000Y-26162000D01*
M02*
