M48
; DRILL file {KiCad 8.0.0~rc1} date 2024-01-16T05:38:01-0500
; FORMAT={-:-/ absolute / inch / decimal}
; #@! TF.CreationDate,2024-01-16T05:38:01-05:00
; #@! TF.GenerationSoftware,Kicad,Pcbnew,8.0.0~rc1
; #@! TF.FileFunction,Plated,1,2,PTH
FMAT,2
INCH
; #@! TA.AperFunction,Plated,PTH,ViaDrill
T1C0.0157
; #@! TA.AperFunction,Plated,PTH,ComponentDrill
T2C0.0315
; #@! TA.AperFunction,Plated,PTH,ComponentDrill
T3C0.0394
; #@! TA.AperFunction,Plated,PTH,ComponentDrill
T4C0.0551
; #@! TA.AperFunction,Plated,PTH,ComponentDrill
T5C0.0630
%
G90
G05
T1
X1.16Y-0.518
X1.17Y-0.468
X1.1766Y-0.9719
X1.1778Y-0.8925
X1.196Y-0.5512
X1.196Y-0.5926
X1.196Y-0.634
X1.218Y-0.9301
X1.2594Y-0.9719
X1.2606Y-0.8925
X1.3008Y-0.9301
X1.3422Y-0.9719
X1.3434Y-0.8925
X1.424Y-0.038
X1.424Y-0.068
X1.424Y-0.098
X1.424Y-0.128
X1.424Y-0.158
X1.424Y-0.188
X1.454Y-0.038
X1.454Y-0.068
X1.454Y-0.098
X1.454Y-0.128
X1.454Y-0.158
X1.454Y-0.188
X1.468Y-0.222
X1.468Y-0.252
X1.468Y-0.282
X1.468Y-0.312
X1.468Y-0.342
X1.468Y-0.372
X1.468Y-0.402
X1.468Y-0.432
X1.468Y-0.462
X1.468Y-0.492
X1.468Y-0.522
X1.484Y-0.038
X1.484Y-0.068
X1.484Y-0.098
X1.484Y-0.128
X1.484Y-0.158
X1.484Y-0.188
X1.498Y-0.222
X1.498Y-0.252
X1.498Y-0.282
X1.498Y-0.312
X1.498Y-0.342
X1.498Y-0.372
X1.498Y-0.402
X1.498Y-0.432
X1.498Y-0.462
X1.498Y-0.492
X1.498Y-0.522
X1.498Y-0.552
X1.498Y-0.582
X1.498Y-0.612
X1.514Y-0.038
X1.514Y-0.068
X1.514Y-0.098
X1.514Y-0.128
X1.514Y-0.158
X1.514Y-0.188
X1.528Y-0.222
X1.528Y-0.252
X1.528Y-0.282
X1.528Y-0.312
X1.528Y-0.342
X1.528Y-0.372
X1.528Y-0.402
X1.528Y-0.432
X1.528Y-0.462
X1.528Y-0.492
X1.528Y-0.522
X1.528Y-0.552
X1.528Y-0.582
X1.528Y-0.612
X1.544Y-0.038
X1.544Y-0.068
X1.544Y-0.098
X1.544Y-0.128
X1.544Y-0.158
X1.544Y-0.188
X1.556Y-0.788
X1.5577Y-0.8309
X1.558Y-0.222
X1.558Y-0.252
X1.558Y-0.282
X1.558Y-0.312
X1.558Y-0.342
X1.558Y-0.372
X1.558Y-0.402
X1.558Y-0.432
X1.558Y-0.462
X1.558Y-0.492
X1.558Y-0.522
X1.558Y-0.552
X1.558Y-0.582
X1.558Y-0.612
X1.574Y-0.038
X1.574Y-0.068
X1.574Y-0.098
X1.574Y-0.128
X1.574Y-0.158
X1.574Y-0.188
X1.588Y-0.222
X1.588Y-0.252
X1.588Y-0.282
X1.588Y-0.312
X1.588Y-0.342
X1.588Y-0.372
X1.588Y-0.402
X1.588Y-0.432
X1.588Y-0.462
X1.588Y-0.492
X1.588Y-0.522
X1.588Y-0.552
X1.588Y-0.582
X1.588Y-0.612
X1.5971Y-0.8309
X1.604Y-0.038
X1.604Y-0.068
X1.604Y-0.098
X1.604Y-0.128
X1.604Y-0.158
X1.604Y-0.188
X1.618Y-0.222
X1.618Y-0.252
X1.618Y-0.282
X1.618Y-0.468
X1.618Y-0.558
X1.618Y-0.588
X1.618Y-0.618
X1.634Y-0.038
X1.634Y-0.068
X1.634Y-0.098
X1.634Y-0.128
X1.634Y-0.158
X1.634Y-0.188
X1.648Y-0.222
X1.648Y-0.252
X1.648Y-0.282
X1.648Y-0.468
X1.664Y-0.038
X1.664Y-0.068
X1.664Y-0.098
X1.664Y-0.128
X1.664Y-0.158
X1.664Y-0.188
X1.678Y-0.222
X1.678Y-0.252
X1.678Y-0.282
X1.678Y-0.468
X1.694Y-0.188
X1.708Y-0.222
X1.708Y-0.252
X1.708Y-0.282
X1.708Y-0.312
X1.708Y-0.342
X1.708Y-0.372
X1.708Y-0.404
X1.708Y-0.434
X1.708Y-0.464
X1.708Y-0.556
X1.708Y-0.586
X1.708Y-0.616
X1.724Y-0.83
X1.738Y-0.252
X1.738Y-0.282
X1.738Y-0.312
X1.738Y-0.342
X1.738Y-0.372
X1.738Y-0.404
X1.738Y-0.434
X1.738Y-0.464
X1.738Y-0.496
X1.738Y-0.526
X1.738Y-0.556
X1.738Y-0.586
X1.738Y-0.616
X1.768Y-0.634
X1.77Y-0.296
X1.77Y-0.326
X1.77Y-0.356
X1.77Y-0.386
X1.77Y-0.416
X1.77Y-0.446
X1.77Y-0.476
X1.77Y-0.506
X1.77Y-0.536
X1.77Y-0.568
X1.77Y-0.6
X1.8Y-0.296
X1.8Y-0.326
X1.8Y-0.356
X1.8Y-0.386
X1.8Y-0.416
X1.8Y-0.446
X1.8Y-0.476
X1.8Y-0.506
X1.8Y-0.536
X1.8Y-0.568
X1.802Y-0.6
X1.83Y-0.296
X1.83Y-0.326
X1.83Y-0.356
X1.83Y-0.386
X1.83Y-0.416
X1.83Y-0.446
X1.83Y-0.476
X1.83Y-0.506
X1.83Y-0.536
X1.83Y-0.568
X1.86Y-0.296
X1.86Y-0.326
X1.86Y-0.356
X1.86Y-0.386
X1.86Y-0.416
X1.86Y-0.446
X1.86Y-0.476
X1.86Y-0.506
X1.86Y-0.536
X1.86Y-0.568
X1.89Y-0.296
X1.89Y-0.326
X1.89Y-0.356
X1.89Y-0.386
X1.89Y-0.416
X1.89Y-0.446
X1.89Y-0.476
X1.89Y-0.506
X1.89Y-0.536
X1.89Y-0.568
X1.92Y-0.296
X1.92Y-0.326
X1.92Y-0.356
X1.92Y-0.386
X1.92Y-0.416
X1.92Y-0.446
X1.92Y-0.476
X1.92Y-0.506
X1.92Y-0.536
X1.92Y-0.568
X1.95Y-0.296
X1.95Y-0.326
X1.95Y-0.356
X1.95Y-0.386
X1.95Y-0.416
X1.95Y-0.446
X1.95Y-0.476
X1.95Y-0.506
X1.95Y-0.536
X1.95Y-0.568
T2
X1.445Y-0.735
X1.445Y-0.835
X1.445Y-0.935
T3
X0.4678Y-0.2233
X0.4678Y-0.8137
X1.0582Y-0.42
X1.0582Y-0.617
T4
X0.12Y-0.365
X0.12Y-0.665
T5
X1.635Y-0.935
X1.865Y-0.675
M30
