%TF.GenerationSoftware,KiCad,Pcbnew,8.0.0~rc1*%
%TF.CreationDate,2024-01-16T05:38:03-05:00*%
%TF.ProjectId,VTVMbattElim,5654564d-6261-4747-9445-6c696d2e6b69,rev?*%
%TF.SameCoordinates,PX68860e8PY35c5de8*%
%TF.FileFunction,Legend,Bot*%
%TF.FilePolarity,Positive*%
%FSLAX46Y46*%
G04 Gerber Fmt 4.6, Leading zero omitted, Abs format (unit mm)*
G04 Created by KiCad (PCBNEW 8.0.0~rc1) date 2024-01-16 05:38:03*
%MOMM*%
%LPD*%
G01*
G04 APERTURE LIST*
%ADD10C,0.150000*%
%ADD11C,0.120000*%
%TA.AperFunction,Profile*%
%ADD12C,0.100000*%
%TD*%
G04 APERTURE END LIST*
D10*
X40298666Y-15694819D02*
X40631999Y-15218628D01*
X40870094Y-15694819D02*
X40870094Y-14694819D01*
X40870094Y-14694819D02*
X40489142Y-14694819D01*
X40489142Y-14694819D02*
X40393904Y-14742438D01*
X40393904Y-14742438D02*
X40346285Y-14790057D01*
X40346285Y-14790057D02*
X40298666Y-14885295D01*
X40298666Y-14885295D02*
X40298666Y-15028152D01*
X40298666Y-15028152D02*
X40346285Y-15123390D01*
X40346285Y-15123390D02*
X40393904Y-15171009D01*
X40393904Y-15171009D02*
X40489142Y-15218628D01*
X40489142Y-15218628D02*
X40870094Y-15218628D01*
X39393904Y-14694819D02*
X39870094Y-14694819D01*
X39870094Y-14694819D02*
X39917713Y-15171009D01*
X39917713Y-15171009D02*
X39870094Y-15123390D01*
X39870094Y-15123390D02*
X39774856Y-15075771D01*
X39774856Y-15075771D02*
X39536761Y-15075771D01*
X39536761Y-15075771D02*
X39441523Y-15123390D01*
X39441523Y-15123390D02*
X39393904Y-15171009D01*
X39393904Y-15171009D02*
X39346285Y-15266247D01*
X39346285Y-15266247D02*
X39346285Y-15504342D01*
X39346285Y-15504342D02*
X39393904Y-15599580D01*
X39393904Y-15599580D02*
X39441523Y-15647200D01*
X39441523Y-15647200D02*
X39536761Y-15694819D01*
X39536761Y-15694819D02*
X39774856Y-15694819D01*
X39774856Y-15694819D02*
X39870094Y-15647200D01*
X39870094Y-15647200D02*
X39917713Y-15599580D01*
X12423733Y-13240609D02*
X12757066Y-13240609D01*
X12757066Y-13764419D02*
X12757066Y-12764419D01*
X12757066Y-12764419D02*
X12280876Y-12764419D01*
X11947542Y-12859657D02*
X11899923Y-12812038D01*
X11899923Y-12812038D02*
X11804685Y-12764419D01*
X11804685Y-12764419D02*
X11566590Y-12764419D01*
X11566590Y-12764419D02*
X11471352Y-12812038D01*
X11471352Y-12812038D02*
X11423733Y-12859657D01*
X11423733Y-12859657D02*
X11376114Y-12954895D01*
X11376114Y-12954895D02*
X11376114Y-13050133D01*
X11376114Y-13050133D02*
X11423733Y-13192990D01*
X11423733Y-13192990D02*
X11995161Y-13764419D01*
X11995161Y-13764419D02*
X11376114Y-13764419D01*
X31510266Y-15390019D02*
X31843599Y-14913828D01*
X32081694Y-15390019D02*
X32081694Y-14390019D01*
X32081694Y-14390019D02*
X31700742Y-14390019D01*
X31700742Y-14390019D02*
X31605504Y-14437638D01*
X31605504Y-14437638D02*
X31557885Y-14485257D01*
X31557885Y-14485257D02*
X31510266Y-14580495D01*
X31510266Y-14580495D02*
X31510266Y-14723352D01*
X31510266Y-14723352D02*
X31557885Y-14818590D01*
X31557885Y-14818590D02*
X31605504Y-14866209D01*
X31605504Y-14866209D02*
X31700742Y-14913828D01*
X31700742Y-14913828D02*
X32081694Y-14913828D01*
X31129313Y-14485257D02*
X31081694Y-14437638D01*
X31081694Y-14437638D02*
X30986456Y-14390019D01*
X30986456Y-14390019D02*
X30748361Y-14390019D01*
X30748361Y-14390019D02*
X30653123Y-14437638D01*
X30653123Y-14437638D02*
X30605504Y-14485257D01*
X30605504Y-14485257D02*
X30557885Y-14580495D01*
X30557885Y-14580495D02*
X30557885Y-14675733D01*
X30557885Y-14675733D02*
X30605504Y-14818590D01*
X30605504Y-14818590D02*
X31176932Y-15390019D01*
X31176932Y-15390019D02*
X30557885Y-15390019D01*
X44464266Y-15396380D02*
X44511885Y-15444000D01*
X44511885Y-15444000D02*
X44654742Y-15491619D01*
X44654742Y-15491619D02*
X44749980Y-15491619D01*
X44749980Y-15491619D02*
X44892837Y-15444000D01*
X44892837Y-15444000D02*
X44988075Y-15348761D01*
X44988075Y-15348761D02*
X45035694Y-15253523D01*
X45035694Y-15253523D02*
X45083313Y-15063047D01*
X45083313Y-15063047D02*
X45083313Y-14920190D01*
X45083313Y-14920190D02*
X45035694Y-14729714D01*
X45035694Y-14729714D02*
X44988075Y-14634476D01*
X44988075Y-14634476D02*
X44892837Y-14539238D01*
X44892837Y-14539238D02*
X44749980Y-14491619D01*
X44749980Y-14491619D02*
X44654742Y-14491619D01*
X44654742Y-14491619D02*
X44511885Y-14539238D01*
X44511885Y-14539238D02*
X44464266Y-14586857D01*
X44083313Y-14586857D02*
X44035694Y-14539238D01*
X44035694Y-14539238D02*
X43940456Y-14491619D01*
X43940456Y-14491619D02*
X43702361Y-14491619D01*
X43702361Y-14491619D02*
X43607123Y-14539238D01*
X43607123Y-14539238D02*
X43559504Y-14586857D01*
X43559504Y-14586857D02*
X43511885Y-14682095D01*
X43511885Y-14682095D02*
X43511885Y-14777333D01*
X43511885Y-14777333D02*
X43559504Y-14920190D01*
X43559504Y-14920190D02*
X44130932Y-15491619D01*
X44130932Y-15491619D02*
X43511885Y-15491619D01*
X28699619Y-20508933D02*
X28223428Y-20175600D01*
X28699619Y-19937505D02*
X27699619Y-19937505D01*
X27699619Y-19937505D02*
X27699619Y-20318457D01*
X27699619Y-20318457D02*
X27747238Y-20413695D01*
X27747238Y-20413695D02*
X27794857Y-20461314D01*
X27794857Y-20461314D02*
X27890095Y-20508933D01*
X27890095Y-20508933D02*
X28032952Y-20508933D01*
X28032952Y-20508933D02*
X28128190Y-20461314D01*
X28128190Y-20461314D02*
X28175809Y-20413695D01*
X28175809Y-20413695D02*
X28223428Y-20318457D01*
X28223428Y-20318457D02*
X28223428Y-19937505D01*
X28699619Y-21461314D02*
X28699619Y-20889886D01*
X28699619Y-21175600D02*
X27699619Y-21175600D01*
X27699619Y-21175600D02*
X27842476Y-21080362D01*
X27842476Y-21080362D02*
X27937714Y-20985124D01*
X27937714Y-20985124D02*
X27985333Y-20889886D01*
X27639180Y-6335733D02*
X27686800Y-6288114D01*
X27686800Y-6288114D02*
X27734419Y-6145257D01*
X27734419Y-6145257D02*
X27734419Y-6050019D01*
X27734419Y-6050019D02*
X27686800Y-5907162D01*
X27686800Y-5907162D02*
X27591561Y-5811924D01*
X27591561Y-5811924D02*
X27496323Y-5764305D01*
X27496323Y-5764305D02*
X27305847Y-5716686D01*
X27305847Y-5716686D02*
X27162990Y-5716686D01*
X27162990Y-5716686D02*
X26972514Y-5764305D01*
X26972514Y-5764305D02*
X26877276Y-5811924D01*
X26877276Y-5811924D02*
X26782038Y-5907162D01*
X26782038Y-5907162D02*
X26734419Y-6050019D01*
X26734419Y-6050019D02*
X26734419Y-6145257D01*
X26734419Y-6145257D02*
X26782038Y-6288114D01*
X26782038Y-6288114D02*
X26829657Y-6335733D01*
X27067752Y-7192876D02*
X27734419Y-7192876D01*
X26686800Y-6954781D02*
X27401085Y-6716686D01*
X27401085Y-6716686D02*
X27401085Y-7335733D01*
X22121019Y-8761505D02*
X21121019Y-8761505D01*
X21121019Y-8761505D02*
X21121019Y-8999600D01*
X21121019Y-8999600D02*
X21168638Y-9142457D01*
X21168638Y-9142457D02*
X21263876Y-9237695D01*
X21263876Y-9237695D02*
X21359114Y-9285314D01*
X21359114Y-9285314D02*
X21549590Y-9332933D01*
X21549590Y-9332933D02*
X21692447Y-9332933D01*
X21692447Y-9332933D02*
X21882923Y-9285314D01*
X21882923Y-9285314D02*
X21978161Y-9237695D01*
X21978161Y-9237695D02*
X22073400Y-9142457D01*
X22073400Y-9142457D02*
X22121019Y-8999600D01*
X22121019Y-8999600D02*
X22121019Y-8761505D01*
X21216257Y-9713886D02*
X21168638Y-9761505D01*
X21168638Y-9761505D02*
X21121019Y-9856743D01*
X21121019Y-9856743D02*
X21121019Y-10094838D01*
X21121019Y-10094838D02*
X21168638Y-10190076D01*
X21168638Y-10190076D02*
X21216257Y-10237695D01*
X21216257Y-10237695D02*
X21311495Y-10285314D01*
X21311495Y-10285314D02*
X21406733Y-10285314D01*
X21406733Y-10285314D02*
X21549590Y-10237695D01*
X21549590Y-10237695D02*
X22121019Y-9666267D01*
X22121019Y-9666267D02*
X22121019Y-10285314D01*
X28655180Y-18070533D02*
X28702800Y-18022914D01*
X28702800Y-18022914D02*
X28750419Y-17880057D01*
X28750419Y-17880057D02*
X28750419Y-17784819D01*
X28750419Y-17784819D02*
X28702800Y-17641962D01*
X28702800Y-17641962D02*
X28607561Y-17546724D01*
X28607561Y-17546724D02*
X28512323Y-17499105D01*
X28512323Y-17499105D02*
X28321847Y-17451486D01*
X28321847Y-17451486D02*
X28178990Y-17451486D01*
X28178990Y-17451486D02*
X27988514Y-17499105D01*
X27988514Y-17499105D02*
X27893276Y-17546724D01*
X27893276Y-17546724D02*
X27798038Y-17641962D01*
X27798038Y-17641962D02*
X27750419Y-17784819D01*
X27750419Y-17784819D02*
X27750419Y-17880057D01*
X27750419Y-17880057D02*
X27798038Y-18022914D01*
X27798038Y-18022914D02*
X27845657Y-18070533D01*
X28750419Y-19022914D02*
X28750419Y-18451486D01*
X28750419Y-18737200D02*
X27750419Y-18737200D01*
X27750419Y-18737200D02*
X27893276Y-18641962D01*
X27893276Y-18641962D02*
X27988514Y-18546724D01*
X27988514Y-18546724D02*
X28036133Y-18451486D01*
X39369904Y-13479819D02*
X39369904Y-14289342D01*
X39369904Y-14289342D02*
X39322285Y-14384580D01*
X39322285Y-14384580D02*
X39274666Y-14432200D01*
X39274666Y-14432200D02*
X39179428Y-14479819D01*
X39179428Y-14479819D02*
X38988952Y-14479819D01*
X38988952Y-14479819D02*
X38893714Y-14432200D01*
X38893714Y-14432200D02*
X38846095Y-14384580D01*
X38846095Y-14384580D02*
X38798476Y-14289342D01*
X38798476Y-14289342D02*
X38798476Y-13479819D01*
X37798476Y-14479819D02*
X38369904Y-14479819D01*
X38084190Y-14479819D02*
X38084190Y-13479819D01*
X38084190Y-13479819D02*
X38179428Y-13622676D01*
X38179428Y-13622676D02*
X38274666Y-13717914D01*
X38274666Y-13717914D02*
X38369904Y-13765533D01*
X34469294Y-2639219D02*
X34469294Y-1639219D01*
X34469294Y-1639219D02*
X34231199Y-1639219D01*
X34231199Y-1639219D02*
X34088342Y-1686838D01*
X34088342Y-1686838D02*
X33993104Y-1782076D01*
X33993104Y-1782076D02*
X33945485Y-1877314D01*
X33945485Y-1877314D02*
X33897866Y-2067790D01*
X33897866Y-2067790D02*
X33897866Y-2210647D01*
X33897866Y-2210647D02*
X33945485Y-2401123D01*
X33945485Y-2401123D02*
X33993104Y-2496361D01*
X33993104Y-2496361D02*
X34088342Y-2591600D01*
X34088342Y-2591600D02*
X34231199Y-2639219D01*
X34231199Y-2639219D02*
X34469294Y-2639219D01*
X32945485Y-2639219D02*
X33516913Y-2639219D01*
X33231199Y-2639219D02*
X33231199Y-1639219D01*
X33231199Y-1639219D02*
X33326437Y-1782076D01*
X33326437Y-1782076D02*
X33421675Y-1877314D01*
X33421675Y-1877314D02*
X33516913Y-1924933D01*
X32662019Y-7097733D02*
X32185828Y-6764400D01*
X32662019Y-6526305D02*
X31662019Y-6526305D01*
X31662019Y-6526305D02*
X31662019Y-6907257D01*
X31662019Y-6907257D02*
X31709638Y-7002495D01*
X31709638Y-7002495D02*
X31757257Y-7050114D01*
X31757257Y-7050114D02*
X31852495Y-7097733D01*
X31852495Y-7097733D02*
X31995352Y-7097733D01*
X31995352Y-7097733D02*
X32090590Y-7050114D01*
X32090590Y-7050114D02*
X32138209Y-7002495D01*
X32138209Y-7002495D02*
X32185828Y-6907257D01*
X32185828Y-6907257D02*
X32185828Y-6526305D01*
X31662019Y-7431067D02*
X31662019Y-8050114D01*
X31662019Y-8050114D02*
X32042971Y-7716781D01*
X32042971Y-7716781D02*
X32042971Y-7859638D01*
X32042971Y-7859638D02*
X32090590Y-7954876D01*
X32090590Y-7954876D02*
X32138209Y-8002495D01*
X32138209Y-8002495D02*
X32233447Y-8050114D01*
X32233447Y-8050114D02*
X32471542Y-8050114D01*
X32471542Y-8050114D02*
X32566780Y-8002495D01*
X32566780Y-8002495D02*
X32614400Y-7954876D01*
X32614400Y-7954876D02*
X32662019Y-7859638D01*
X32662019Y-7859638D02*
X32662019Y-7573924D01*
X32662019Y-7573924D02*
X32614400Y-7478686D01*
X32614400Y-7478686D02*
X32566780Y-7431067D01*
D11*
%TO.C,R5*%
X40010000Y-19142064D02*
X40010000Y-17687936D01*
X41830000Y-19142064D02*
X41830000Y-17687936D01*
%TO.C,F2*%
X14861000Y-14773000D02*
X8761000Y-14773000D01*
X14861000Y-17993000D02*
X8761000Y-17993000D01*
%TO.C,R2*%
X35398064Y-13822000D02*
X33943936Y-13822000D01*
X35398064Y-15642000D02*
X33943936Y-15642000D01*
%TO.C,C2*%
X42435500Y-19126252D02*
X42435500Y-17703748D01*
X44255500Y-19126252D02*
X44255500Y-17703748D01*
%TO.C,R1*%
X30794936Y-16616000D02*
X32249064Y-16616000D01*
X30794936Y-18436000D02*
X32249064Y-18436000D01*
%TO.C,C4*%
X28681000Y-9347252D02*
X28681000Y-7924748D01*
X30501000Y-9347252D02*
X30501000Y-7924748D01*
%TO.C,D2*%
X22495000Y-11302000D02*
X22495000Y-7442000D01*
X24495000Y-7442000D02*
X22495000Y-7442000D01*
X24495000Y-11302000D02*
X24495000Y-7442000D01*
%TO.C,C1*%
X30810748Y-19041500D02*
X32233252Y-19041500D01*
X30810748Y-20861500D02*
X32233252Y-20861500D01*
%TO.C,U1*%
X40518000Y-6115000D02*
X36758000Y-6115000D01*
X40518000Y-7375000D02*
X40518000Y-6115000D01*
X40518000Y-11675000D02*
X40518000Y-12935000D01*
X40518000Y-12935000D02*
X34508000Y-12935000D01*
%TO.C,D1*%
X31279500Y-3229500D02*
X31279500Y-5229500D01*
X35139500Y-3229500D02*
X31279500Y-3229500D01*
X35139500Y-5229500D02*
X31279500Y-5229500D01*
%TO.C,R3*%
X31348000Y-11649064D02*
X31348000Y-10194936D01*
X33168000Y-11649064D02*
X33168000Y-10194936D01*
%TD*%
D12*
X50038000Y-26162000D02*
X0Y-26162000D01*
X0Y0D02*
X50038000Y0D01*
X0Y-26162000D02*
X0Y0D01*
X50038000Y0D02*
X50038000Y-26162000D01*
M02*
