%TF.GenerationSoftware,KiCad,Pcbnew,8.0.0~rc1*%
%TF.CreationDate,2024-01-16T05:38:00-05:00*%
%TF.ProjectId,VTVMbattElim,5654564d-6261-4747-9445-6c696d2e6b69,rev?*%
%TF.SameCoordinates,PX68860e8PY35c5de8*%
%TF.FileFunction,Drillmap*%
%TF.FilePolarity,Positive*%
%FSLAX45Y45*%
G04 Gerber Fmt 4.5, Leading zero omitted, Abs format (unit mm)*
G04 Created by KiCad (PCBNEW 8.0.0~rc1) date 2024-01-16 05:38:00*
%MOMM*%
%LPD*%
G01*
G04 APERTURE LIST*
%ADD10C,0.100000*%
%ADD11C,0.200000*%
%ADD12C,0.317500*%
G04 APERTURE END LIST*
D10*
X5003800Y-2616200D02*
X0Y-2616200D01*
X0Y0D02*
X5003800Y0D01*
X0Y-2616200D02*
X0Y0D01*
X5003800Y0D02*
X5003800Y-2616200D01*
D11*
D12*
X133350Y-118410D02*
X450850Y-435910D01*
X450850Y-118410D02*
X133350Y-435910D01*
X133350Y-2180890D02*
X450850Y-2498390D01*
X450850Y-2180890D02*
X133350Y-2498390D01*
X4578350Y-118410D02*
X4895850Y-435910D01*
X4895850Y-118410D02*
X4578350Y-435910D01*
X4578350Y-2180890D02*
X4895850Y-2498390D01*
X4895850Y-2180890D02*
X4578350Y-2498390D01*
D11*
X255777Y-2932684D02*
X255777Y-2732684D01*
X255777Y-2732684D02*
X303396Y-2732684D01*
X303396Y-2732684D02*
X331967Y-2742208D01*
X331967Y-2742208D02*
X351015Y-2761255D01*
X351015Y-2761255D02*
X360539Y-2780303D01*
X360539Y-2780303D02*
X370062Y-2818398D01*
X370062Y-2818398D02*
X370062Y-2846969D01*
X370062Y-2846969D02*
X360539Y-2885065D01*
X360539Y-2885065D02*
X351015Y-2904112D01*
X351015Y-2904112D02*
X331967Y-2923160D01*
X331967Y-2923160D02*
X303396Y-2932684D01*
X303396Y-2932684D02*
X255777Y-2932684D01*
X455777Y-2932684D02*
X455777Y-2799350D01*
X455777Y-2837446D02*
X465301Y-2818398D01*
X465301Y-2818398D02*
X474824Y-2808874D01*
X474824Y-2808874D02*
X493872Y-2799350D01*
X493872Y-2799350D02*
X512920Y-2799350D01*
X579586Y-2932684D02*
X579586Y-2799350D01*
X579586Y-2732684D02*
X570063Y-2742208D01*
X570063Y-2742208D02*
X579586Y-2751731D01*
X579586Y-2751731D02*
X589110Y-2742208D01*
X589110Y-2742208D02*
X579586Y-2732684D01*
X579586Y-2732684D02*
X579586Y-2751731D01*
X703396Y-2932684D02*
X684348Y-2923160D01*
X684348Y-2923160D02*
X674824Y-2904112D01*
X674824Y-2904112D02*
X674824Y-2732684D01*
X808158Y-2932684D02*
X789110Y-2923160D01*
X789110Y-2923160D02*
X779586Y-2904112D01*
X779586Y-2904112D02*
X779586Y-2732684D01*
X1036729Y-2932684D02*
X1036729Y-2732684D01*
X1036729Y-2732684D02*
X1103396Y-2875541D01*
X1103396Y-2875541D02*
X1170063Y-2732684D01*
X1170063Y-2732684D02*
X1170063Y-2932684D01*
X1351015Y-2932684D02*
X1351015Y-2827922D01*
X1351015Y-2827922D02*
X1341491Y-2808874D01*
X1341491Y-2808874D02*
X1322444Y-2799350D01*
X1322444Y-2799350D02*
X1284348Y-2799350D01*
X1284348Y-2799350D02*
X1265301Y-2808874D01*
X1351015Y-2923160D02*
X1331967Y-2932684D01*
X1331967Y-2932684D02*
X1284348Y-2932684D01*
X1284348Y-2932684D02*
X1265301Y-2923160D01*
X1265301Y-2923160D02*
X1255777Y-2904112D01*
X1255777Y-2904112D02*
X1255777Y-2885065D01*
X1255777Y-2885065D02*
X1265301Y-2866017D01*
X1265301Y-2866017D02*
X1284348Y-2856493D01*
X1284348Y-2856493D02*
X1331967Y-2856493D01*
X1331967Y-2856493D02*
X1351015Y-2846969D01*
X1446253Y-2799350D02*
X1446253Y-2999350D01*
X1446253Y-2808874D02*
X1465301Y-2799350D01*
X1465301Y-2799350D02*
X1503396Y-2799350D01*
X1503396Y-2799350D02*
X1522443Y-2808874D01*
X1522443Y-2808874D02*
X1531967Y-2818398D01*
X1531967Y-2818398D02*
X1541491Y-2837446D01*
X1541491Y-2837446D02*
X1541491Y-2894588D01*
X1541491Y-2894588D02*
X1531967Y-2913636D01*
X1531967Y-2913636D02*
X1522443Y-2923160D01*
X1522443Y-2923160D02*
X1503396Y-2932684D01*
X1503396Y-2932684D02*
X1465301Y-2932684D01*
X1465301Y-2932684D02*
X1446253Y-2923160D01*
X1627205Y-2913636D02*
X1636729Y-2923160D01*
X1636729Y-2923160D02*
X1627205Y-2932684D01*
X1627205Y-2932684D02*
X1617682Y-2923160D01*
X1617682Y-2923160D02*
X1627205Y-2913636D01*
X1627205Y-2913636D02*
X1627205Y-2932684D01*
X1627205Y-2808874D02*
X1636729Y-2818398D01*
X1636729Y-2818398D02*
X1627205Y-2827922D01*
X1627205Y-2827922D02*
X1617682Y-2818398D01*
X1617682Y-2818398D02*
X1627205Y-2808874D01*
X1627205Y-2808874D02*
X1627205Y-2827922D01*
X-205000Y-3161200D02*
X-5000Y-3361200D01*
X-5000Y-3161200D02*
X-205000Y-3361200D01*
X236729Y-3152684D02*
X360539Y-3152684D01*
X360539Y-3152684D02*
X293872Y-3228874D01*
X293872Y-3228874D02*
X322444Y-3228874D01*
X322444Y-3228874D02*
X341491Y-3238398D01*
X341491Y-3238398D02*
X351015Y-3247922D01*
X351015Y-3247922D02*
X360539Y-3266969D01*
X360539Y-3266969D02*
X360539Y-3314588D01*
X360539Y-3314588D02*
X351015Y-3333636D01*
X351015Y-3333636D02*
X341491Y-3343160D01*
X341491Y-3343160D02*
X322444Y-3352684D01*
X322444Y-3352684D02*
X265301Y-3352684D01*
X265301Y-3352684D02*
X246253Y-3343160D01*
X246253Y-3343160D02*
X236729Y-3333636D01*
X446253Y-3333636D02*
X455777Y-3343160D01*
X455777Y-3343160D02*
X446253Y-3352684D01*
X446253Y-3352684D02*
X436729Y-3343160D01*
X436729Y-3343160D02*
X446253Y-3333636D01*
X446253Y-3333636D02*
X446253Y-3352684D01*
X646253Y-3352684D02*
X531967Y-3352684D01*
X589110Y-3352684D02*
X589110Y-3152684D01*
X589110Y-3152684D02*
X570063Y-3181255D01*
X570063Y-3181255D02*
X551015Y-3200303D01*
X551015Y-3200303D02*
X531967Y-3209827D01*
X712920Y-3152684D02*
X846253Y-3152684D01*
X846253Y-3152684D02*
X760539Y-3352684D01*
X1017682Y-3152684D02*
X922443Y-3152684D01*
X922443Y-3152684D02*
X912920Y-3247922D01*
X912920Y-3247922D02*
X922443Y-3238398D01*
X922443Y-3238398D02*
X941491Y-3228874D01*
X941491Y-3228874D02*
X989110Y-3228874D01*
X989110Y-3228874D02*
X1008158Y-3238398D01*
X1008158Y-3238398D02*
X1017682Y-3247922D01*
X1017682Y-3247922D02*
X1027205Y-3266969D01*
X1027205Y-3266969D02*
X1027205Y-3314588D01*
X1027205Y-3314588D02*
X1017682Y-3333636D01*
X1017682Y-3333636D02*
X1008158Y-3343160D01*
X1008158Y-3343160D02*
X989110Y-3352684D01*
X989110Y-3352684D02*
X941491Y-3352684D01*
X941491Y-3352684D02*
X922443Y-3343160D01*
X922443Y-3343160D02*
X912920Y-3333636D01*
X1112920Y-3352684D02*
X1112920Y-3219350D01*
X1112920Y-3238398D02*
X1122444Y-3228874D01*
X1122444Y-3228874D02*
X1141491Y-3219350D01*
X1141491Y-3219350D02*
X1170063Y-3219350D01*
X1170063Y-3219350D02*
X1189110Y-3228874D01*
X1189110Y-3228874D02*
X1198634Y-3247922D01*
X1198634Y-3247922D02*
X1198634Y-3352684D01*
X1198634Y-3247922D02*
X1208158Y-3228874D01*
X1208158Y-3228874D02*
X1227205Y-3219350D01*
X1227205Y-3219350D02*
X1255777Y-3219350D01*
X1255777Y-3219350D02*
X1274825Y-3228874D01*
X1274825Y-3228874D02*
X1284348Y-3247922D01*
X1284348Y-3247922D02*
X1284348Y-3352684D01*
X1379586Y-3352684D02*
X1379586Y-3219350D01*
X1379586Y-3238398D02*
X1389110Y-3228874D01*
X1389110Y-3228874D02*
X1408158Y-3219350D01*
X1408158Y-3219350D02*
X1436729Y-3219350D01*
X1436729Y-3219350D02*
X1455777Y-3228874D01*
X1455777Y-3228874D02*
X1465301Y-3247922D01*
X1465301Y-3247922D02*
X1465301Y-3352684D01*
X1465301Y-3247922D02*
X1474824Y-3228874D01*
X1474824Y-3228874D02*
X1493872Y-3219350D01*
X1493872Y-3219350D02*
X1522443Y-3219350D01*
X1522443Y-3219350D02*
X1541491Y-3228874D01*
X1541491Y-3228874D02*
X1551015Y-3247922D01*
X1551015Y-3247922D02*
X1551015Y-3352684D01*
X1941491Y-3143160D02*
X1770063Y-3400303D01*
X2198634Y-3152684D02*
X2217682Y-3152684D01*
X2217682Y-3152684D02*
X2236729Y-3162208D01*
X2236729Y-3162208D02*
X2246253Y-3171731D01*
X2246253Y-3171731D02*
X2255777Y-3190779D01*
X2255777Y-3190779D02*
X2265301Y-3228874D01*
X2265301Y-3228874D02*
X2265301Y-3276493D01*
X2265301Y-3276493D02*
X2255777Y-3314588D01*
X2255777Y-3314588D02*
X2246253Y-3333636D01*
X2246253Y-3333636D02*
X2236729Y-3343160D01*
X2236729Y-3343160D02*
X2217682Y-3352684D01*
X2217682Y-3352684D02*
X2198634Y-3352684D01*
X2198634Y-3352684D02*
X2179587Y-3343160D01*
X2179587Y-3343160D02*
X2170063Y-3333636D01*
X2170063Y-3333636D02*
X2160539Y-3314588D01*
X2160539Y-3314588D02*
X2151015Y-3276493D01*
X2151015Y-3276493D02*
X2151015Y-3228874D01*
X2151015Y-3228874D02*
X2160539Y-3190779D01*
X2160539Y-3190779D02*
X2170063Y-3171731D01*
X2170063Y-3171731D02*
X2179587Y-3162208D01*
X2179587Y-3162208D02*
X2198634Y-3152684D01*
X2351015Y-3333636D02*
X2360539Y-3343160D01*
X2360539Y-3343160D02*
X2351015Y-3352684D01*
X2351015Y-3352684D02*
X2341491Y-3343160D01*
X2341491Y-3343160D02*
X2351015Y-3333636D01*
X2351015Y-3333636D02*
X2351015Y-3352684D01*
X2551015Y-3352684D02*
X2436729Y-3352684D01*
X2493872Y-3352684D02*
X2493872Y-3152684D01*
X2493872Y-3152684D02*
X2474825Y-3181255D01*
X2474825Y-3181255D02*
X2455777Y-3200303D01*
X2455777Y-3200303D02*
X2436729Y-3209827D01*
X2627206Y-3171731D02*
X2636729Y-3162208D01*
X2636729Y-3162208D02*
X2655777Y-3152684D01*
X2655777Y-3152684D02*
X2703396Y-3152684D01*
X2703396Y-3152684D02*
X2722444Y-3162208D01*
X2722444Y-3162208D02*
X2731968Y-3171731D01*
X2731968Y-3171731D02*
X2741491Y-3190779D01*
X2741491Y-3190779D02*
X2741491Y-3209827D01*
X2741491Y-3209827D02*
X2731968Y-3238398D01*
X2731968Y-3238398D02*
X2617682Y-3352684D01*
X2617682Y-3352684D02*
X2741491Y-3352684D01*
X2922444Y-3152684D02*
X2827206Y-3152684D01*
X2827206Y-3152684D02*
X2817682Y-3247922D01*
X2817682Y-3247922D02*
X2827206Y-3238398D01*
X2827206Y-3238398D02*
X2846253Y-3228874D01*
X2846253Y-3228874D02*
X2893872Y-3228874D01*
X2893872Y-3228874D02*
X2912920Y-3238398D01*
X2912920Y-3238398D02*
X2922444Y-3247922D01*
X2922444Y-3247922D02*
X2931967Y-3266969D01*
X2931967Y-3266969D02*
X2931967Y-3314588D01*
X2931967Y-3314588D02*
X2922444Y-3333636D01*
X2922444Y-3333636D02*
X2912920Y-3343160D01*
X2912920Y-3343160D02*
X2893872Y-3352684D01*
X2893872Y-3352684D02*
X2846253Y-3352684D01*
X2846253Y-3352684D02*
X2827206Y-3343160D01*
X2827206Y-3343160D02*
X2817682Y-3333636D01*
X3055777Y-3152684D02*
X3074825Y-3152684D01*
X3074825Y-3152684D02*
X3093872Y-3162208D01*
X3093872Y-3162208D02*
X3103396Y-3171731D01*
X3103396Y-3171731D02*
X3112920Y-3190779D01*
X3112920Y-3190779D02*
X3122444Y-3228874D01*
X3122444Y-3228874D02*
X3122444Y-3276493D01*
X3122444Y-3276493D02*
X3112920Y-3314588D01*
X3112920Y-3314588D02*
X3103396Y-3333636D01*
X3103396Y-3333636D02*
X3093872Y-3343160D01*
X3093872Y-3343160D02*
X3074825Y-3352684D01*
X3074825Y-3352684D02*
X3055777Y-3352684D01*
X3055777Y-3352684D02*
X3036729Y-3343160D01*
X3036729Y-3343160D02*
X3027206Y-3333636D01*
X3027206Y-3333636D02*
X3017682Y-3314588D01*
X3017682Y-3314588D02*
X3008158Y-3276493D01*
X3008158Y-3276493D02*
X3008158Y-3228874D01*
X3008158Y-3228874D02*
X3017682Y-3190779D01*
X3017682Y-3190779D02*
X3027206Y-3171731D01*
X3027206Y-3171731D02*
X3036729Y-3162208D01*
X3036729Y-3162208D02*
X3055777Y-3152684D01*
X3198634Y-3152684D02*
X3198634Y-3190779D01*
X3274825Y-3152684D02*
X3274825Y-3190779D01*
X3570063Y-3428874D02*
X3560539Y-3419350D01*
X3560539Y-3419350D02*
X3541491Y-3390779D01*
X3541491Y-3390779D02*
X3531968Y-3371731D01*
X3531968Y-3371731D02*
X3522444Y-3343160D01*
X3522444Y-3343160D02*
X3512920Y-3295541D01*
X3512920Y-3295541D02*
X3512920Y-3257446D01*
X3512920Y-3257446D02*
X3522444Y-3209827D01*
X3522444Y-3209827D02*
X3531968Y-3181255D01*
X3531968Y-3181255D02*
X3541491Y-3162208D01*
X3541491Y-3162208D02*
X3560539Y-3133636D01*
X3560539Y-3133636D02*
X3570063Y-3124112D01*
X3731968Y-3219350D02*
X3731968Y-3352684D01*
X3684348Y-3143160D02*
X3636729Y-3286017D01*
X3636729Y-3286017D02*
X3760539Y-3286017D01*
X3989110Y-3352684D02*
X3989110Y-3152684D01*
X4074825Y-3352684D02*
X4074825Y-3247922D01*
X4074825Y-3247922D02*
X4065301Y-3228874D01*
X4065301Y-3228874D02*
X4046253Y-3219350D01*
X4046253Y-3219350D02*
X4017682Y-3219350D01*
X4017682Y-3219350D02*
X3998634Y-3228874D01*
X3998634Y-3228874D02*
X3989110Y-3238398D01*
X4198634Y-3352684D02*
X4179587Y-3343160D01*
X4179587Y-3343160D02*
X4170063Y-3333636D01*
X4170063Y-3333636D02*
X4160539Y-3314588D01*
X4160539Y-3314588D02*
X4160539Y-3257446D01*
X4160539Y-3257446D02*
X4170063Y-3238398D01*
X4170063Y-3238398D02*
X4179587Y-3228874D01*
X4179587Y-3228874D02*
X4198634Y-3219350D01*
X4198634Y-3219350D02*
X4227206Y-3219350D01*
X4227206Y-3219350D02*
X4246253Y-3228874D01*
X4246253Y-3228874D02*
X4255777Y-3238398D01*
X4255777Y-3238398D02*
X4265301Y-3257446D01*
X4265301Y-3257446D02*
X4265301Y-3314588D01*
X4265301Y-3314588D02*
X4255777Y-3333636D01*
X4255777Y-3333636D02*
X4246253Y-3343160D01*
X4246253Y-3343160D02*
X4227206Y-3352684D01*
X4227206Y-3352684D02*
X4198634Y-3352684D01*
X4379587Y-3352684D02*
X4360539Y-3343160D01*
X4360539Y-3343160D02*
X4351015Y-3324112D01*
X4351015Y-3324112D02*
X4351015Y-3152684D01*
X4531968Y-3343160D02*
X4512920Y-3352684D01*
X4512920Y-3352684D02*
X4474825Y-3352684D01*
X4474825Y-3352684D02*
X4455777Y-3343160D01*
X4455777Y-3343160D02*
X4446253Y-3324112D01*
X4446253Y-3324112D02*
X4446253Y-3247922D01*
X4446253Y-3247922D02*
X4455777Y-3228874D01*
X4455777Y-3228874D02*
X4474825Y-3219350D01*
X4474825Y-3219350D02*
X4512920Y-3219350D01*
X4512920Y-3219350D02*
X4531968Y-3228874D01*
X4531968Y-3228874D02*
X4541492Y-3247922D01*
X4541492Y-3247922D02*
X4541492Y-3266969D01*
X4541492Y-3266969D02*
X4446253Y-3286017D01*
X4617682Y-3343160D02*
X4636730Y-3352684D01*
X4636730Y-3352684D02*
X4674825Y-3352684D01*
X4674825Y-3352684D02*
X4693873Y-3343160D01*
X4693873Y-3343160D02*
X4703396Y-3324112D01*
X4703396Y-3324112D02*
X4703396Y-3314588D01*
X4703396Y-3314588D02*
X4693873Y-3295541D01*
X4693873Y-3295541D02*
X4674825Y-3286017D01*
X4674825Y-3286017D02*
X4646253Y-3286017D01*
X4646253Y-3286017D02*
X4627206Y-3276493D01*
X4627206Y-3276493D02*
X4617682Y-3257446D01*
X4617682Y-3257446D02*
X4617682Y-3247922D01*
X4617682Y-3247922D02*
X4627206Y-3228874D01*
X4627206Y-3228874D02*
X4646253Y-3219350D01*
X4646253Y-3219350D02*
X4674825Y-3219350D01*
X4674825Y-3219350D02*
X4693873Y-3228874D01*
X4770063Y-3428874D02*
X4779587Y-3419350D01*
X4779587Y-3419350D02*
X4798634Y-3390779D01*
X4798634Y-3390779D02*
X4808158Y-3371731D01*
X4808158Y-3371731D02*
X4817682Y-3343160D01*
X4817682Y-3343160D02*
X4827206Y-3295541D01*
X4827206Y-3295541D02*
X4827206Y-3257446D01*
X4827206Y-3257446D02*
X4817682Y-3209827D01*
X4817682Y-3209827D02*
X4808158Y-3181255D01*
X4808158Y-3181255D02*
X4798634Y-3162208D01*
X4798634Y-3162208D02*
X4779587Y-3133636D01*
X4779587Y-3133636D02*
X4770063Y-3124112D01*
X5131968Y-3428874D02*
X5122444Y-3419350D01*
X5122444Y-3419350D02*
X5103396Y-3390779D01*
X5103396Y-3390779D02*
X5093873Y-3371731D01*
X5093873Y-3371731D02*
X5084349Y-3343160D01*
X5084349Y-3343160D02*
X5074825Y-3295541D01*
X5074825Y-3295541D02*
X5074825Y-3257446D01*
X5074825Y-3257446D02*
X5084349Y-3209827D01*
X5084349Y-3209827D02*
X5093873Y-3181255D01*
X5093873Y-3181255D02*
X5103396Y-3162208D01*
X5103396Y-3162208D02*
X5122444Y-3133636D01*
X5122444Y-3133636D02*
X5131968Y-3124112D01*
X5208158Y-3219350D02*
X5208158Y-3352684D01*
X5208158Y-3238398D02*
X5217682Y-3228874D01*
X5217682Y-3228874D02*
X5236730Y-3219350D01*
X5236730Y-3219350D02*
X5265301Y-3219350D01*
X5265301Y-3219350D02*
X5284349Y-3228874D01*
X5284349Y-3228874D02*
X5293873Y-3247922D01*
X5293873Y-3247922D02*
X5293873Y-3352684D01*
X5417682Y-3352684D02*
X5398634Y-3343160D01*
X5398634Y-3343160D02*
X5389111Y-3333636D01*
X5389111Y-3333636D02*
X5379587Y-3314588D01*
X5379587Y-3314588D02*
X5379587Y-3257446D01*
X5379587Y-3257446D02*
X5389111Y-3238398D01*
X5389111Y-3238398D02*
X5398634Y-3228874D01*
X5398634Y-3228874D02*
X5417682Y-3219350D01*
X5417682Y-3219350D02*
X5446254Y-3219350D01*
X5446254Y-3219350D02*
X5465301Y-3228874D01*
X5465301Y-3228874D02*
X5474825Y-3238398D01*
X5474825Y-3238398D02*
X5484349Y-3257446D01*
X5484349Y-3257446D02*
X5484349Y-3314588D01*
X5484349Y-3314588D02*
X5474825Y-3333636D01*
X5474825Y-3333636D02*
X5465301Y-3343160D01*
X5465301Y-3343160D02*
X5446254Y-3352684D01*
X5446254Y-3352684D02*
X5417682Y-3352684D01*
X5541492Y-3219350D02*
X5617682Y-3219350D01*
X5570063Y-3152684D02*
X5570063Y-3324112D01*
X5570063Y-3324112D02*
X5579587Y-3343160D01*
X5579587Y-3343160D02*
X5598634Y-3352684D01*
X5598634Y-3352684D02*
X5617682Y-3352684D01*
X5836730Y-3219350D02*
X5836730Y-3419350D01*
X5836730Y-3228874D02*
X5855777Y-3219350D01*
X5855777Y-3219350D02*
X5893873Y-3219350D01*
X5893873Y-3219350D02*
X5912920Y-3228874D01*
X5912920Y-3228874D02*
X5922444Y-3238398D01*
X5922444Y-3238398D02*
X5931968Y-3257446D01*
X5931968Y-3257446D02*
X5931968Y-3314588D01*
X5931968Y-3314588D02*
X5922444Y-3333636D01*
X5922444Y-3333636D02*
X5912920Y-3343160D01*
X5912920Y-3343160D02*
X5893873Y-3352684D01*
X5893873Y-3352684D02*
X5855777Y-3352684D01*
X5855777Y-3352684D02*
X5836730Y-3343160D01*
X6046253Y-3352684D02*
X6027206Y-3343160D01*
X6027206Y-3343160D02*
X6017682Y-3324112D01*
X6017682Y-3324112D02*
X6017682Y-3152684D01*
X6208158Y-3352684D02*
X6208158Y-3247922D01*
X6208158Y-3247922D02*
X6198634Y-3228874D01*
X6198634Y-3228874D02*
X6179587Y-3219350D01*
X6179587Y-3219350D02*
X6141492Y-3219350D01*
X6141492Y-3219350D02*
X6122444Y-3228874D01*
X6208158Y-3343160D02*
X6189111Y-3352684D01*
X6189111Y-3352684D02*
X6141492Y-3352684D01*
X6141492Y-3352684D02*
X6122444Y-3343160D01*
X6122444Y-3343160D02*
X6112920Y-3324112D01*
X6112920Y-3324112D02*
X6112920Y-3305065D01*
X6112920Y-3305065D02*
X6122444Y-3286017D01*
X6122444Y-3286017D02*
X6141492Y-3276493D01*
X6141492Y-3276493D02*
X6189111Y-3276493D01*
X6189111Y-3276493D02*
X6208158Y-3266969D01*
X6274825Y-3219350D02*
X6351015Y-3219350D01*
X6303396Y-3152684D02*
X6303396Y-3324112D01*
X6303396Y-3324112D02*
X6312920Y-3343160D01*
X6312920Y-3343160D02*
X6331968Y-3352684D01*
X6331968Y-3352684D02*
X6351015Y-3352684D01*
X6493873Y-3343160D02*
X6474825Y-3352684D01*
X6474825Y-3352684D02*
X6436730Y-3352684D01*
X6436730Y-3352684D02*
X6417682Y-3343160D01*
X6417682Y-3343160D02*
X6408158Y-3324112D01*
X6408158Y-3324112D02*
X6408158Y-3247922D01*
X6408158Y-3247922D02*
X6417682Y-3228874D01*
X6417682Y-3228874D02*
X6436730Y-3219350D01*
X6436730Y-3219350D02*
X6474825Y-3219350D01*
X6474825Y-3219350D02*
X6493873Y-3228874D01*
X6493873Y-3228874D02*
X6503396Y-3247922D01*
X6503396Y-3247922D02*
X6503396Y-3266969D01*
X6503396Y-3266969D02*
X6408158Y-3286017D01*
X6674825Y-3352684D02*
X6674825Y-3152684D01*
X6674825Y-3343160D02*
X6655777Y-3352684D01*
X6655777Y-3352684D02*
X6617682Y-3352684D01*
X6617682Y-3352684D02*
X6598634Y-3343160D01*
X6598634Y-3343160D02*
X6589111Y-3333636D01*
X6589111Y-3333636D02*
X6579587Y-3314588D01*
X6579587Y-3314588D02*
X6579587Y-3257446D01*
X6579587Y-3257446D02*
X6589111Y-3238398D01*
X6589111Y-3238398D02*
X6598634Y-3228874D01*
X6598634Y-3228874D02*
X6617682Y-3219350D01*
X6617682Y-3219350D02*
X6655777Y-3219350D01*
X6655777Y-3219350D02*
X6674825Y-3228874D01*
X6751015Y-3428874D02*
X6760539Y-3419350D01*
X6760539Y-3419350D02*
X6779587Y-3390779D01*
X6779587Y-3390779D02*
X6789111Y-3371731D01*
X6789111Y-3371731D02*
X6798634Y-3343160D01*
X6798634Y-3343160D02*
X6808158Y-3295541D01*
X6808158Y-3295541D02*
X6808158Y-3257446D01*
X6808158Y-3257446D02*
X6798634Y-3209827D01*
X6798634Y-3209827D02*
X6789111Y-3181255D01*
X6789111Y-3181255D02*
X6779587Y-3162208D01*
X6779587Y-3162208D02*
X6760539Y-3133636D01*
X6760539Y-3133636D02*
X6751015Y-3124112D01*
M02*
