%TF.GenerationSoftware,KiCad,Pcbnew,8.0.0~rc1*%
%TF.CreationDate,2024-01-16T05:38:03-05:00*%
%TF.ProjectId,VTVMbattElim,5654564d-6261-4747-9445-6c696d2e6b69,rev?*%
%TF.SameCoordinates,PX68860e8PY35c5de8*%
%TF.FileFunction,Legend,Top*%
%TF.FilePolarity,Positive*%
%FSLAX46Y46*%
G04 Gerber Fmt 4.6, Leading zero omitted, Abs format (unit mm)*
G04 Created by KiCad (PCBNEW 8.0.0~rc1) date 2024-01-16 05:38:03*
%MOMM*%
%LPD*%
G01*
G04 APERTURE LIST*
%ADD10C,0.150000*%
%ADD11C,0.120000*%
%TA.AperFunction,Profile*%
%ADD12C,0.100000*%
%TD*%
G04 APERTURE END LIST*
D10*
X43675419Y-24698077D02*
X44675419Y-24364744D01*
X44675419Y-24364744D02*
X43675419Y-24031411D01*
X44294466Y-23698077D02*
X44294466Y-22936173D01*
X46675922Y-19393019D02*
X47009255Y-20393019D01*
X47009255Y-20393019D02*
X47342588Y-19393019D01*
X47675922Y-20012066D02*
X48437827Y-20012066D01*
X48056874Y-20393019D02*
X48056874Y-19631114D01*
X285979Y-6981819D02*
X285979Y-5981819D01*
X285979Y-5981819D02*
X857407Y-6981819D01*
X857407Y-6981819D02*
X857407Y-5981819D01*
X1333598Y-6458009D02*
X1666931Y-6458009D01*
X1809788Y-6981819D02*
X1333598Y-6981819D01*
X1333598Y-6981819D02*
X1333598Y-5981819D01*
X1333598Y-5981819D02*
X1809788Y-5981819D01*
X2095503Y-5981819D02*
X2666931Y-5981819D01*
X2381217Y-6981819D02*
X2381217Y-5981819D01*
X3000265Y-5981819D02*
X3000265Y-6791342D01*
X3000265Y-6791342D02*
X3047884Y-6886580D01*
X3047884Y-6886580D02*
X3095503Y-6934200D01*
X3095503Y-6934200D02*
X3190741Y-6981819D01*
X3190741Y-6981819D02*
X3381217Y-6981819D01*
X3381217Y-6981819D02*
X3476455Y-6934200D01*
X3476455Y-6934200D02*
X3524074Y-6886580D01*
X3524074Y-6886580D02*
X3571693Y-6791342D01*
X3571693Y-6791342D02*
X3571693Y-5981819D01*
X4619312Y-6981819D02*
X4285979Y-6505628D01*
X4047884Y-6981819D02*
X4047884Y-5981819D01*
X4047884Y-5981819D02*
X4428836Y-5981819D01*
X4428836Y-5981819D02*
X4524074Y-6029438D01*
X4524074Y-6029438D02*
X4571693Y-6077057D01*
X4571693Y-6077057D02*
X4619312Y-6172295D01*
X4619312Y-6172295D02*
X4619312Y-6315152D01*
X4619312Y-6315152D02*
X4571693Y-6410390D01*
X4571693Y-6410390D02*
X4524074Y-6458009D01*
X4524074Y-6458009D02*
X4428836Y-6505628D01*
X4428836Y-6505628D02*
X4047884Y-6505628D01*
X5000265Y-6696104D02*
X5476455Y-6696104D01*
X4905027Y-6981819D02*
X5238360Y-5981819D01*
X5238360Y-5981819D02*
X5571693Y-6981819D01*
X6381217Y-6981819D02*
X5905027Y-6981819D01*
X5905027Y-6981819D02*
X5905027Y-5981819D01*
X2184569Y-20240619D02*
X1708379Y-20240619D01*
X1708379Y-20240619D02*
X1708379Y-19240619D01*
X2517903Y-20240619D02*
X2517903Y-19240619D01*
X2994093Y-20240619D02*
X2994093Y-19240619D01*
X2994093Y-19240619D02*
X3565521Y-20240619D01*
X3565521Y-20240619D02*
X3565521Y-19240619D01*
X4041712Y-19716809D02*
X4375045Y-19716809D01*
X4517902Y-20240619D02*
X4041712Y-20240619D01*
X4041712Y-20240619D02*
X4041712Y-19240619D01*
X4041712Y-19240619D02*
X4517902Y-19240619D01*
X36615761Y-15948819D02*
X36282428Y-15472628D01*
X36044333Y-15948819D02*
X36044333Y-14948819D01*
X36044333Y-14948819D02*
X36425285Y-14948819D01*
X36425285Y-14948819D02*
X36520523Y-14996438D01*
X36520523Y-14996438D02*
X36568142Y-15044057D01*
X36568142Y-15044057D02*
X36615761Y-15139295D01*
X36615761Y-15139295D02*
X36615761Y-15282152D01*
X36615761Y-15282152D02*
X36568142Y-15377390D01*
X36568142Y-15377390D02*
X36520523Y-15425009D01*
X36520523Y-15425009D02*
X36425285Y-15472628D01*
X36425285Y-15472628D02*
X36044333Y-15472628D01*
X36901476Y-14948819D02*
X37234809Y-15948819D01*
X37234809Y-15948819D02*
X37568142Y-14948819D01*
X38425285Y-15948819D02*
X37853857Y-15948819D01*
X38139571Y-15948819D02*
X38139571Y-14948819D01*
X38139571Y-14948819D02*
X38044333Y-15091676D01*
X38044333Y-15091676D02*
X37949095Y-15186914D01*
X37949095Y-15186914D02*
X37853857Y-15234533D01*
X46609095Y973581D02*
X46609095Y1973581D01*
X46609095Y1497391D02*
X47180523Y1497391D01*
X47180523Y973581D02*
X47180523Y1973581D01*
X47609095Y1878343D02*
X47656714Y1925962D01*
X47656714Y1925962D02*
X47751952Y1973581D01*
X47751952Y1973581D02*
X47990047Y1973581D01*
X47990047Y1973581D02*
X48085285Y1925962D01*
X48085285Y1925962D02*
X48132904Y1878343D01*
X48132904Y1878343D02*
X48180523Y1783105D01*
X48180523Y1783105D02*
X48180523Y1687867D01*
X48180523Y1687867D02*
X48132904Y1545010D01*
X48132904Y1545010D02*
X47561476Y973581D01*
X47561476Y973581D02*
X48180523Y973581D01*
X18851714Y-25397619D02*
X18851714Y-24397619D01*
X18851714Y-24397619D02*
X19232666Y-24397619D01*
X19232666Y-24397619D02*
X19327904Y-24445238D01*
X19327904Y-24445238D02*
X19375523Y-24492857D01*
X19375523Y-24492857D02*
X19423142Y-24588095D01*
X19423142Y-24588095D02*
X19423142Y-24730952D01*
X19423142Y-24730952D02*
X19375523Y-24826190D01*
X19375523Y-24826190D02*
X19327904Y-24873809D01*
X19327904Y-24873809D02*
X19232666Y-24921428D01*
X19232666Y-24921428D02*
X18851714Y-24921428D01*
X19804095Y-25350000D02*
X19946952Y-25397619D01*
X19946952Y-25397619D02*
X20185047Y-25397619D01*
X20185047Y-25397619D02*
X20280285Y-25350000D01*
X20280285Y-25350000D02*
X20327904Y-25302380D01*
X20327904Y-25302380D02*
X20375523Y-25207142D01*
X20375523Y-25207142D02*
X20375523Y-25111904D01*
X20375523Y-25111904D02*
X20327904Y-25016666D01*
X20327904Y-25016666D02*
X20280285Y-24969047D01*
X20280285Y-24969047D02*
X20185047Y-24921428D01*
X20185047Y-24921428D02*
X19994571Y-24873809D01*
X19994571Y-24873809D02*
X19899333Y-24826190D01*
X19899333Y-24826190D02*
X19851714Y-24778571D01*
X19851714Y-24778571D02*
X19804095Y-24683333D01*
X19804095Y-24683333D02*
X19804095Y-24588095D01*
X19804095Y-24588095D02*
X19851714Y-24492857D01*
X19851714Y-24492857D02*
X19899333Y-24445238D01*
X19899333Y-24445238D02*
X19994571Y-24397619D01*
X19994571Y-24397619D02*
X20232666Y-24397619D01*
X20232666Y-24397619D02*
X20375523Y-24445238D01*
X21327904Y-25397619D02*
X20756476Y-25397619D01*
X21042190Y-25397619D02*
X21042190Y-24397619D01*
X21042190Y-24397619D02*
X20946952Y-24540476D01*
X20946952Y-24540476D02*
X20851714Y-24635714D01*
X20851714Y-24635714D02*
X20756476Y-24683333D01*
X2159095Y973581D02*
X2159095Y1973581D01*
X2159095Y1497391D02*
X2730523Y1497391D01*
X2730523Y973581D02*
X2730523Y1973581D01*
X3730523Y973581D02*
X3159095Y973581D01*
X3444809Y973581D02*
X3444809Y1973581D01*
X3444809Y1973581D02*
X3349571Y1830724D01*
X3349571Y1830724D02*
X3254333Y1735486D01*
X3254333Y1735486D02*
X3159095Y1687867D01*
X39723219Y-14708094D02*
X38723219Y-14708094D01*
X38723219Y-14708094D02*
X38723219Y-14469999D01*
X38723219Y-14469999D02*
X38770838Y-14327142D01*
X38770838Y-14327142D02*
X38866076Y-14231904D01*
X38866076Y-14231904D02*
X38961314Y-14184285D01*
X38961314Y-14184285D02*
X39151790Y-14136666D01*
X39151790Y-14136666D02*
X39294647Y-14136666D01*
X39294647Y-14136666D02*
X39485123Y-14184285D01*
X39485123Y-14184285D02*
X39580361Y-14231904D01*
X39580361Y-14231904D02*
X39675600Y-14327142D01*
X39675600Y-14327142D02*
X39723219Y-14469999D01*
X39723219Y-14469999D02*
X39723219Y-14708094D01*
X38723219Y-13803332D02*
X38723219Y-13184285D01*
X38723219Y-13184285D02*
X39104171Y-13517618D01*
X39104171Y-13517618D02*
X39104171Y-13374761D01*
X39104171Y-13374761D02*
X39151790Y-13279523D01*
X39151790Y-13279523D02*
X39199409Y-13231904D01*
X39199409Y-13231904D02*
X39294647Y-13184285D01*
X39294647Y-13184285D02*
X39532742Y-13184285D01*
X39532742Y-13184285D02*
X39627980Y-13231904D01*
X39627980Y-13231904D02*
X39675600Y-13279523D01*
X39675600Y-13279523D02*
X39723219Y-13374761D01*
X39723219Y-13374761D02*
X39723219Y-13660475D01*
X39723219Y-13660475D02*
X39675600Y-13755713D01*
X39675600Y-13755713D02*
X39627980Y-13803332D01*
D11*
%TO.C,RV1*%
X34173000Y-16324000D02*
X39243000Y-16324000D01*
X34173000Y-26094000D02*
X34173000Y-16324000D01*
X34173000Y-26094000D02*
X39243000Y-26094000D01*
X39243000Y-26094000D02*
X39243000Y-16324000D01*
%TO.C,TP2*%
X1548000Y-15491000D02*
X1548000Y-18341000D01*
X1548000Y-15491000D02*
X4548000Y-15491000D01*
X1548000Y-18341000D02*
X4548000Y-18341000D01*
X4548000Y-15491000D02*
X4548000Y-18341000D01*
%TO.C,TP1*%
X1548000Y-7871000D02*
X1548000Y-10721000D01*
X1548000Y-7871000D02*
X4548000Y-7871000D01*
X1548000Y-10721000D02*
X4548000Y-10721000D01*
X4548000Y-7871000D02*
X4548000Y-10721000D01*
%TO.C,TP4*%
X40029000Y-22349000D02*
X40029000Y-25199000D01*
X40029000Y-22349000D02*
X43029000Y-22349000D01*
X40029000Y-25199000D02*
X43029000Y-25199000D01*
X43029000Y-22349000D02*
X43029000Y-25199000D01*
%TO.C,TP3*%
X45871000Y-15745000D02*
X45871000Y-18595000D01*
X45871000Y-15745000D02*
X48871000Y-15745000D01*
X45871000Y-18595000D02*
X48871000Y-18595000D01*
X48871000Y-15745000D02*
X48871000Y-18595000D01*
%TO.C,D3*%
X40064800Y-11799600D02*
X40064800Y-19459600D01*
X44364800Y-11799600D02*
X40064800Y-11799600D01*
X44364800Y-11799600D02*
X44364800Y-19459600D01*
%TD*%
D12*
X50038000Y-26162000D02*
X0Y-26162000D01*
X0Y0D02*
X50038000Y0D01*
X0Y-26162000D02*
X0Y0D01*
X50038000Y0D02*
X50038000Y-26162000D01*
M02*
